<svg width="70" height="70" viewBox="0 0 70 70" fill="none" xmlns="http://www.w3.org/2000/svg">
<path d="M65.625 70C65.625 70 70 70 70 64.1667C70 58.3333 65.625 40.8333 48.125 40.8333C30.625 40.8333 26.25 58.3333 26.25 64.1667C26.25 70 30.625 70 30.625 70H65.625ZM30.7212 64.1667C30.6889 64.1607 30.6568 64.1529 30.625 64.1433C30.6294 62.6033 31.3556 58.135 33.95 54.11C36.365 50.3358 40.6087 46.6667 48.125 46.6667C55.6369 46.6667 59.8806 50.3417 62.3 54.11C64.8944 58.135 65.6162 62.6092 65.625 64.1433L65.59 64.155C65.5697 64.1596 65.5492 64.1635 65.5287 64.1667H30.7212ZM48.125 29.1667C50.4456 29.1667 52.6712 27.9375 54.3122 25.7496C55.9531 23.5617 56.875 20.5942 56.875 17.5C56.875 14.4058 55.9531 11.4383 54.3122 9.25042C52.6712 7.0625 50.4456 5.83333 48.125 5.83333C45.8044 5.83333 43.5788 7.0625 41.9378 9.25042C40.2969 11.4383 39.375 14.4058 39.375 17.5C39.375 20.5942 40.2969 23.5617 41.9378 25.7496C43.5788 27.9375 45.8044 29.1667 48.125 29.1667ZM61.25 17.5C61.25 19.7981 60.9105 22.0738 60.2509 24.197C59.5913 26.3202 58.6245 28.2493 57.4058 29.8744C56.187 31.4994 54.7401 32.7884 53.1477 33.6679C51.5553 34.5474 49.8486 35 48.125 35C46.4014 35 44.6947 34.5474 43.1023 33.6679C41.5099 32.7884 40.063 31.4994 38.8442 29.8744C37.6255 28.2493 36.6587 26.3202 35.9991 24.197C35.3395 22.0738 35 19.7981 35 17.5C35 12.8587 36.3828 8.40752 38.8442 5.12563C41.3056 1.84375 44.644 0 48.125 0C51.606 0 54.9444 1.84375 57.4058 5.12563C59.8672 8.40752 61.25 12.8587 61.25 17.5ZM30.345 42.4667C28.5949 41.7319 26.7909 41.2489 24.9637 41.0258C23.9371 40.8957 22.9063 40.8314 21.875 40.8333C4.375 40.8333 0 58.3333 0 64.1667C0 68.0575 1.45687 70 4.375 70H22.82C22.1714 68.1789 21.848 66.1823 21.875 64.1667C21.875 58.275 23.5244 52.255 26.6438 47.2267C27.7069 45.5117 28.945 43.9075 30.345 42.4667ZM21.525 46.6667C18.9357 51.8541 17.5369 57.9356 17.5 64.1667H4.375C4.375 62.65 5.0925 58.1583 7.7 54.11C10.0844 50.4 14.2275 46.7833 21.525 46.6725V46.6667ZM6.5625 20.4167C6.5625 15.7754 7.94531 11.3242 10.4067 8.0423C12.8681 4.76041 16.2065 2.91667 19.6875 2.91667C23.1685 2.91667 26.5069 4.76041 28.9683 8.0423C31.4297 11.3242 32.8125 15.7754 32.8125 20.4167C32.8125 25.058 31.4297 29.5091 28.9683 32.791C26.5069 36.0729 23.1685 37.9167 19.6875 37.9167C16.2065 37.9167 12.8681 36.0729 10.4067 32.791C7.94531 29.5091 6.5625 25.058 6.5625 20.4167ZM19.6875 8.75C17.3669 8.75 15.1413 9.97916 13.5003 12.1671C11.8594 14.355 10.9375 17.3225 10.9375 20.4167C10.9375 23.5109 11.8594 26.4783 13.5003 28.6662C15.1413 30.8542 17.3669 32.0833 19.6875 32.0833C22.0081 32.0833 24.2337 30.8542 25.8747 28.6662C27.5156 26.4783 28.4375 23.5109 28.4375 20.4167C28.4375 17.3225 27.5156 14.355 25.8747 12.1671C24.2337 9.97916 22.0081 8.75 19.6875 8.75Z" fill="#B98885"/>
</svg>
